<svg width="100" height="100" viewBox="0 0 100 100" fill="none" xmlns="http://www.w3.org/2000/svg">
<rect width="100" height="100" rx="50" fill="#009869"/>
<g clip-path="url(#clip0_250_2)">
<path d="M85.8468 62.831L77.9288 49.0751H79.8723C80.2825 49.0751 80.6615 48.8563 80.867 48.5012C81.0723 48.1461 81.0727 47.7085 80.8681 47.3529L72.9501 33.5969H74.8936C75.3039 33.5969 75.6828 33.3781 75.8883 33.023C76.0936 32.668 76.094 32.2303 75.8894 31.8747L65.9319 14.5757C65.7269 14.2195 65.3472 14 64.9361 14C64.5251 14 64.1454 14.2195 63.9404 14.5757L53.983 31.8747C53.7784 32.2302 53.7788 32.668 53.9841 33.023C54.1896 33.3783 54.5686 33.5969 54.9788 33.5969H56.9223L56.2175 34.8214C55.901 35.3713 56.0901 36.0738 56.64 36.3903C57.1898 36.7067 57.8924 36.5176 58.2089 35.9679L59.905 33.0212C60.1096 32.6657 60.1092 32.228 59.9039 31.8729C59.6986 31.5178 59.3194 31.299 58.9092 31.299H56.9656L64.936 17.4521L72.9063 31.299H70.9629C70.5527 31.299 70.1737 31.5178 69.9683 31.8729C69.7629 32.228 69.7625 32.6656 69.9671 33.0212L77.8852 46.7773H75.9416C75.5314 46.7773 75.1524 46.9961 74.9469 47.3512C74.7416 47.7063 74.7412 48.1439 74.9458 48.4995L82.8639 62.2553H69.5318C68.8973 62.2553 68.3829 62.7697 68.3829 63.4042C68.3829 64.0387 68.8973 64.5531 69.5318 64.5531H84.851C85.2612 64.5531 85.6402 64.3343 85.8457 63.9792C86.051 63.6242 86.0514 63.1865 85.8468 62.831Z" fill="white"/>
<path d="M84.8511 71.4469H66.0851V52.391L67.1876 53.4935C67.4119 53.7177 67.706 53.83 68 53.83C68.2941 53.83 68.5881 53.7179 68.8124 53.4935C69.2612 53.0447 69.2612 52.3173 68.8124 51.8687L42.3869 25.4431C41.9381 24.9944 41.2107 24.9944 40.7621 25.4431L33.5065 32.6987V26.2552C33.5065 25.6207 32.9921 25.1063 32.3576 25.1063H26.9959C26.3614 25.1063 25.847 25.6207 25.847 26.2552V40.3581L14.3366 51.8685C13.8878 52.3173 13.8878 53.0447 14.3366 53.4933C14.7853 53.942 15.5127 53.942 15.9613 53.4933L17.0638 52.391V71.4469H15.1489C14.5144 71.4469 14 71.9613 14 72.5958C14 73.2303 14.5144 73.7447 15.1489 73.7447H84.8511C85.4856 73.7447 86 73.2303 86 72.5958C86 71.9613 85.4856 71.4469 84.8511 71.4469ZM28.1448 27.4043H31.2086V34.9965L28.1448 38.0603V27.4043ZM27.8073 41.6475C27.8091 41.6457 41.5745 27.8803 41.5745 27.8803L62.1626 48.4682H20.9867L27.8073 41.6475ZM33.1489 71.4469H19.3618V69.1491H33.1491V71.4469H33.1489ZM33.1489 66.8511H19.3618V64.5533H33.1491V66.8511H33.1489ZM33.1489 57.6596H28.5532C27.9187 57.6596 27.4043 58.174 27.4043 58.8085C27.4043 59.443 27.9187 59.9574 28.5532 59.9574H33.1489V62.2552H19.3618V59.9574H23.9576C24.5921 59.9574 25.1065 59.443 25.1065 58.8085C25.1065 58.174 24.5921 57.6596 23.9576 57.6596H19.3618V55.3618H33.1491V57.6596H33.1489ZM33.1489 53.0638H19.3618V50.766H33.1491V53.0638H33.1489ZM47.7022 63.4027C47.7022 63.4058 47.7022 67.9985 47.7022 67.9985C47.7022 68.0016 47.7022 71.4469 47.7022 71.4469H35.4469V58.8102C35.4469 58.8071 35.4469 54.2144 35.4469 54.2144C35.4469 54.2113 35.4469 50.766 35.4469 50.766H47.7022V63.4027ZM63.7873 66.8511H59.1916C58.5571 66.8511 58.0427 67.3655 58.0427 68C58.0427 68.6345 58.5571 69.149 59.1916 69.149H63.7873V71.4468H50V69.149H54.5958C55.2303 69.149 55.7447 68.6345 55.7447 68C55.7447 67.3655 55.2303 66.8511 54.5958 66.8511H50V64.5533H63.7873V66.8511ZM63.7873 62.2554H50V59.9576H63.7873V62.2554ZM63.7873 57.6596H50V55.3618H63.7873V57.6596ZM63.7873 53.0638H50V50.766H63.7873V53.0638Z" fill="white"/>
<path d="M19.7446 76.0425C19.1101 76.0425 18.5957 76.5569 18.5957 77.1914V78.7234C18.5957 79.3579 19.1101 79.8723 19.7446 79.8723C20.3791 79.8723 20.8935 79.3579 20.8935 78.7234V77.1914C20.8935 76.557 20.3791 76.0425 19.7446 76.0425Z" fill="white"/>
<path d="M24.3406 82.1702C23.7061 82.1702 23.1917 82.6846 23.1917 83.3191V84.851C23.1917 85.4855 23.7061 85.9999 24.3406 85.9999C24.9751 85.9999 25.4895 85.4855 25.4895 84.851V83.3191C25.4895 82.6846 24.9751 82.1702 24.3406 82.1702Z" fill="white"/>
<path d="M28.9363 79.1064C28.3018 79.1064 27.7874 79.6208 27.7874 80.2553V81.7873C27.7874 82.4218 28.3018 82.9362 28.9363 82.9362C29.5708 82.9362 30.0852 82.4218 30.0852 81.7873V80.2553C30.0852 79.6208 29.5708 79.1064 28.9363 79.1064Z" fill="white"/>
<path d="M80.2553 76.0425C79.6208 76.0425 79.1064 76.5569 79.1064 77.1914V78.7234C79.1064 79.3579 79.6208 79.8723 80.2553 79.8723C80.8898 79.8723 81.4043 79.3579 81.4043 78.7234V77.1914C81.4043 76.557 80.8898 76.0425 80.2553 76.0425Z" fill="white"/>
<path d="M58.8086 82.1702C58.1741 82.1702 57.6597 82.6846 57.6597 83.3191V84.851C57.6597 85.4855 58.1741 85.9999 58.8086 85.9999C59.4431 85.9999 59.9575 85.4855 59.9575 84.851V83.3191C59.9576 82.6846 59.4431 82.1702 58.8086 82.1702Z" fill="white"/>
<path d="M63.4043 79.1064C62.7698 79.1064 62.2554 79.6208 62.2554 80.2553V81.7873C62.2554 82.4218 62.7698 82.9362 63.4043 82.9362C64.0388 82.9362 64.5532 82.4218 64.5532 81.7873V80.2553C64.5532 79.6208 64.0388 79.1064 63.4043 79.1064Z" fill="white"/>
<path d="M41.9575 79.1064C41.323 79.1064 40.8086 79.6208 40.8086 80.2553V81.7873C40.8086 82.4218 41.323 82.9362 41.9575 82.9362C42.592 82.9362 43.1064 82.4218 43.1064 81.7873V80.2553C43.1064 79.6208 42.592 79.1064 41.9575 79.1064Z" fill="white"/>
</g>
<defs>
<clipPath id="clip0_250_2">
<rect width="72" height="72" fill="white" transform="translate(14 14)"/>
</clipPath>
</defs>
</svg>
